<svg width="103" height="30" viewBox="0 0 103 30" fill="none" xmlns="http://www.w3.org/2000/svg">
<path d="M21.7972 22.8089V20.8804H24.4285C25.0168 20.8804 25.4963 20.7604 25.8666 20.5208C26.2374 20.2701 26.504 19.9433 26.6675 19.5403C26.842 19.1373 26.9289 18.6904 26.9289 18.2001C26.9289 17.5572 26.7492 17.0996 26.3896 16.8273C26.0412 16.5551 25.578 16.4187 25.0005 16.4187H21.7972V14.4412H25.0168C26.3681 14.4412 27.4141 14.7625 28.1547 15.4055C28.8957 16.0373 29.266 16.9525 29.266 18.1511C29.266 18.7614 29.1679 19.3497 28.9718 19.9161C28.7757 20.4718 28.4815 20.9677 28.0893 21.4034C27.6971 21.8391 27.2016 22.1823 26.6021 22.433C26.003 22.6837 25.2946 22.8089 24.4775 22.8089H21.7972ZM20.5225 26.2082V14.4412H22.8432V26.2082H20.5225Z" fill="#1F074F"/>
<path d="M34.7923 26.4043C33.4302 26.4043 32.4006 26.1811 31.7034 25.7343C31.017 25.2874 30.6738 24.5632 30.6738 23.5607C30.6738 22.9177 30.8317 22.3895 31.1478 21.9754C31.4746 21.5612 31.9267 21.2563 32.5043 21.0602C33.0926 20.8533 33.7682 20.7496 34.5308 20.7496C34.9992 20.7496 35.4077 20.7879 35.7565 20.8641C36.1053 20.9294 36.421 21.0004 36.7044 21.0765V22.5474C36.4864 22.4712 36.2085 22.4059 35.8709 22.3513C35.5333 22.2859 35.2064 22.2532 34.8903 22.2532C34.182 22.2532 33.6538 22.3513 33.3051 22.5474C32.9674 22.7435 32.7984 23.0759 32.7984 23.5443C32.7984 23.9912 32.9674 24.3124 33.3051 24.5085C33.6427 24.7047 34.1278 24.8027 34.7596 24.8027C35.1411 24.8027 35.5058 24.77 35.8546 24.7047C36.2141 24.6285 36.5302 24.5141 36.8025 24.3615L36.4756 24.9988C36.4322 24.8681 36.3939 24.7373 36.3612 24.6066C36.3285 24.4759 36.3014 24.3395 36.2795 24.198C36.2687 24.0565 36.2576 23.8983 36.2468 23.7241C36.2468 23.5387 36.2468 23.3155 36.2468 23.054V20.815C36.2468 20.2594 36.1595 19.84 35.9853 19.5566C35.8111 19.2732 35.5548 19.0882 35.2172 19.0009C34.8796 18.9029 34.4598 18.8539 33.9588 18.8539C33.5012 18.8539 33.0599 18.9029 32.635 19.0009C32.2101 19.0882 31.8669 19.1915 31.6054 19.3115H31.442V17.4974C31.8342 17.3559 32.2754 17.2522 32.7657 17.1869C33.256 17.1107 33.7463 17.0724 34.2366 17.0724C34.8469 17.0724 35.4077 17.1271 35.92 17.2359C36.4429 17.3447 36.895 17.5356 37.2764 17.8079C37.6579 18.0801 37.9521 18.4672 38.159 18.9682C38.377 19.4585 38.4858 20.0959 38.4858 20.8804V22.9396C38.4858 23.1684 38.4858 23.457 38.4858 23.8058C38.4966 24.1434 38.5129 24.4759 38.5348 24.8027C38.5568 25.1296 38.5895 25.3911 38.6329 25.5872L38.5839 25.7179C38.2136 25.8595 37.8102 25.985 37.3745 26.0938C36.9496 26.1919 36.5139 26.268 36.067 26.3226C35.6202 26.3772 35.1953 26.4043 34.7923 26.4043Z" fill="#1F074F"/>
<path d="M41.8922 30.0001V29.804L44.0495 24.6232L46.7134 17.2852H49.0341V17.4813L44.1639 30.0001H41.8922ZM43.5102 26.8785L39.931 17.4813V17.2852H42.3662L44.7522 24.4107L43.5102 26.8785Z" fill="#1F074F"/>
<path d="M50.8617 26.2082V20.6352C50.8617 20.4172 50.8565 20.1394 50.8453 19.8017C50.8346 19.453 50.8182 19.1153 50.7963 18.7885C50.7855 18.4509 50.7529 18.1838 50.6982 17.9877L50.7473 17.8569C51.0741 17.7154 51.4612 17.5899 51.9076 17.481C52.3545 17.3611 52.8177 17.263 53.2968 17.1869C53.7871 17.1107 54.2558 17.0724 54.7023 17.0724C55.2145 17.0724 55.7104 17.1322 56.1895 17.2522C56.6798 17.3611 57.1159 17.5627 57.497 17.8569C57.8892 18.1511 58.1997 18.5597 58.4285 19.0826C58.6573 19.5949 58.7717 20.2538 58.7717 21.0602V26.2082H56.4837V21.1582C56.4837 20.5591 56.3968 20.1015 56.2222 19.7854C56.0588 19.4585 55.8248 19.2353 55.5194 19.1153C55.2253 18.9846 54.8821 18.9192 54.4898 18.9192C54.163 18.9192 53.8309 18.9575 53.4929 19.0336C53.166 19.1098 52.8774 19.1971 52.6267 19.2951L52.9699 18.7231C53.0245 18.8865 53.068 19.099 53.1007 19.3605C53.1334 19.622 53.1497 19.9217 53.1497 20.2594V26.2082H50.8617ZM61.9586 26.2082V21.1582C61.9586 20.5591 61.8769 20.1015 61.7135 19.7854C61.5612 19.4585 61.3268 19.2353 61.0107 19.1153C60.7058 18.9846 60.3355 18.9192 59.8994 18.9192C59.6271 18.9192 59.3493 18.9519 59.0659 19.0173C58.7936 19.0719 58.5266 19.148 58.2651 19.2461L57.023 17.7752C57.5133 17.5683 58.0311 17.3993 58.5756 17.2686C59.1313 17.1378 59.6817 17.0724 60.2262 17.0724C60.7492 17.0724 61.2507 17.1271 61.7298 17.2359C62.2093 17.3447 62.6398 17.5464 63.0209 17.8406C63.4024 18.124 63.7021 18.527 63.9198 19.05C64.1378 19.5622 64.2466 20.2323 64.2466 21.0602V26.2082H61.9586Z" fill="#1F074F"/>
<path d="M71.8286 26.3717C71.0114 26.3717 70.2812 26.2792 69.6386 26.0938C68.9956 25.9085 68.4507 25.6306 68.0043 25.2603C67.5574 24.8789 67.2142 24.3941 66.9747 23.8058C66.7459 23.2174 66.6315 22.5203 66.6315 21.7139C66.6315 20.7552 66.8112 19.9325 67.1708 19.2461C67.5303 18.5489 68.037 18.0148 68.6907 17.6445C69.3552 17.263 70.1289 17.0724 71.0114 17.0724C72.0028 17.0724 72.8091 17.2793 73.4302 17.6935C74.0512 18.0965 74.4977 18.6633 74.7703 19.3932C75.0426 20.1123 75.157 20.9402 75.1135 21.8773L75.0972 22.4166H68.1023V20.9131H72.8745V20.815C72.8745 20.1505 72.7163 19.6439 72.4006 19.2951C72.0952 18.9463 71.6269 18.7721 70.9951 18.7721C70.6028 18.7721 70.2485 18.8594 69.9328 19.0336C69.6274 19.1971 69.3823 19.4805 69.1973 19.8835C69.0227 20.2865 68.9358 20.8369 68.9358 21.5341V21.8773C68.9358 22.5637 69.0666 23.103 69.3281 23.4953C69.5896 23.8767 69.9491 24.149 70.4067 24.3124C70.8643 24.4759 71.3925 24.5576 71.992 24.5576C72.5257 24.5576 72.9941 24.5086 73.3975 24.4105C73.8005 24.3124 74.1166 24.198 74.3454 24.0673H74.5088V25.914C74.2035 26.0448 73.8276 26.1536 73.3812 26.2409C72.9451 26.3282 72.4277 26.3717 71.8286 26.3717Z" fill="#1F074F"/>
<path d="M77.5939 26.2082V20.6352C77.5939 20.4172 77.5883 20.1394 77.5775 19.8017C77.5667 19.453 77.5504 19.1153 77.5285 18.7885C77.5177 18.4509 77.485 18.1838 77.4304 17.9877L77.4794 17.8569C77.8063 17.7154 78.193 17.5899 78.6398 17.481C79.0974 17.3611 79.5658 17.263 80.0453 17.1869C80.5356 17.1107 80.9988 17.0724 81.4345 17.0724C81.9901 17.0724 82.5187 17.1322 83.0198 17.2522C83.532 17.3611 83.9896 17.5627 84.3926 17.8569C84.7956 18.1511 85.1117 18.5597 85.3405 19.0826C85.5693 19.5949 85.6837 20.2538 85.6837 21.0602V26.2082H83.3956V21.1582C83.3956 20.5591 83.3083 20.1015 83.1341 19.7854C82.96 19.4585 82.7092 19.2353 82.3824 19.1153C82.0555 18.9846 81.6689 18.9192 81.222 18.9192C80.8951 18.9192 80.5627 18.9575 80.2251 19.0336C79.8982 19.1098 79.6096 19.1971 79.3589 19.2951L79.7021 18.7231C79.7567 18.8865 79.8002 19.099 79.8329 19.3605C79.8655 19.622 79.8819 19.9217 79.8819 20.2594V26.2082H77.5939Z" fill="#1F074F"/>
<path d="M92.3841 26.3392C91.6104 26.3392 90.9515 26.2248 90.4066 25.996C89.8729 25.7672 89.4643 25.4184 89.1809 24.9501C88.9086 24.4705 88.7723 23.8551 88.7723 23.1033V14.9808H91.0603V22.9235C91.0603 23.4792 91.1911 23.877 91.4526 24.1166C91.7141 24.3561 92.1171 24.4761 92.662 24.4761C92.8688 24.4761 93.0705 24.4542 93.2667 24.4107C93.4735 24.3673 93.6533 24.3127 93.806 24.2473H93.9531V26.0777C93.7569 26.1538 93.5281 26.214 93.2667 26.2575C93.0052 26.3121 92.711 26.3392 92.3841 26.3392ZM87.3505 19.1156V17.2851H93.4955V19.1156H87.3505Z" fill="#1F074F"/>
<path d="M95.5039 23.9531H95.6346C96.0269 24.1166 96.4845 24.2581 97.0074 24.3781C97.5412 24.498 98.0749 24.5578 98.6091 24.5578C98.794 24.5578 98.9957 24.5522 99.2137 24.5415C99.4314 24.5195 99.6331 24.4817 99.8184 24.4271C100.015 24.3725 100.172 24.2744 100.292 24.1329C100.423 23.9914 100.489 23.8005 100.489 23.5609C100.489 23.256 100.363 23.0435 100.113 22.9235C99.8619 22.8035 99.4752 22.7003 98.9523 22.613L98.1841 22.4823C97.3124 22.3296 96.6423 22.0681 96.1739 21.6978C95.7052 21.3163 95.4712 20.7555 95.4712 20.0144C95.4712 19.4807 95.6127 18.9956 95.8961 18.5599C96.1903 18.1242 96.6423 17.781 97.2526 17.5303C97.8736 17.2688 98.6852 17.1381 99.6877 17.1381C100.156 17.1381 100.587 17.1707 100.979 17.2361C101.382 17.2907 101.763 17.3725 102.123 17.4813V19.3607H101.992C101.578 19.1973 101.18 19.0829 100.799 19.0175C100.418 18.9522 100.025 18.9195 99.6223 18.9195C99.0121 18.9195 98.5325 18.9956 98.1841 19.1483C97.8461 19.2898 97.6775 19.5461 97.6775 19.9164C97.6775 20.1998 97.8027 20.4011 98.0534 20.5211C98.3149 20.6411 98.6908 20.7443 99.1811 20.8316L99.9328 20.9623C100.445 21.0385 100.908 21.1748 101.322 21.3709C101.747 21.567 102.085 21.8393 102.335 22.1881C102.586 22.5257 102.711 22.9618 102.711 23.4955C102.711 24.4434 102.357 25.1569 101.649 25.6365C100.951 26.1048 99.8946 26.3392 98.4783 26.3392C97.9553 26.3392 97.4324 26.2958 96.9094 26.2085C96.3864 26.1212 95.9176 26.0123 95.5039 25.8816V23.9531Z" fill="#1F074F"/>
<path d="M29.4843 6.63504C29.4843 5.40372 29.7182 4.33624 30.187 3.43179C30.6661 2.51658 31.3689 1.80825 32.2953 1.3072C33.232 0.806141 34.3816 0.55542 35.7436 0.55542C36.2993 0.55542 36.7948 0.598858 37.2309 0.686153C37.6773 0.773449 38.048 0.88786 38.3422 1.02937V3.08859H38.1788C37.8954 2.92516 37.5521 2.8 37.1491 2.7127C36.7458 2.61464 36.3157 2.56562 35.8581 2.56562C34.9863 2.56562 34.2564 2.72347 33.6681 3.03956C33.0797 3.35566 32.6329 3.81845 32.3279 4.42872C32.0226 5.02783 31.8703 5.76327 31.8703 6.63504C31.8703 7.5068 32.0226 8.24741 32.3279 8.85769C32.6329 9.4568 33.0797 9.91441 33.6681 10.2305C34.2564 10.5466 34.9863 10.7045 35.8581 10.7045C36.3157 10.7045 36.7458 10.661 37.1491 10.5737C37.5521 10.4757 37.8954 10.3449 38.1788 10.1815H38.3422V12.2407C38.048 12.3822 37.6773 12.4966 37.2309 12.5839C36.7948 12.6712 36.2993 12.7147 35.7436 12.7147C34.3816 12.7147 33.232 12.4695 32.2953 11.9792C31.3689 11.4889 30.6661 10.7918 30.187 9.88731C29.7182 8.97209 29.4843 7.88787 29.4843 6.63504Z" fill="#1F074F"/>
<path d="M44.503 12.7151C43.1409 12.7151 42.1113 12.4919 41.4141 12.045C40.7277 11.5982 40.3845 10.8739 40.3845 9.87138C40.3845 9.22842 40.5424 8.70025 40.8585 8.28609C41.1853 7.87194 41.6373 7.567 42.2149 7.37089C42.8033 7.16401 43.4785 7.06037 44.2415 7.06037C44.7099 7.06037 45.1184 7.09863 45.4672 7.17477C45.8156 7.24014 46.1317 7.3111 46.4151 7.38724V8.8581C46.1971 8.78197 45.9192 8.7166 45.5816 8.66199C45.2436 8.59662 44.9167 8.56394 44.601 8.56394C43.8927 8.56394 43.3641 8.66198 43.0157 8.8581C42.6777 9.05422 42.5091 9.38666 42.5091 9.85503C42.5091 10.3019 42.6777 10.6232 43.0157 10.8193C43.3534 11.0154 43.8381 11.1135 44.4703 11.1135C44.8514 11.1135 45.2165 11.0808 45.5653 11.0154C45.9248 10.9393 46.2405 10.8249 46.5132 10.6722L46.1863 11.3096C46.1425 11.1788 46.1046 11.0481 46.0719 10.9173C46.0392 10.7866 46.0117 10.6503 45.9902 10.5088C45.979 10.3673 45.9683 10.209 45.9575 10.0348C45.9575 9.84946 45.9575 9.62624 45.9575 9.36475V7.12574C45.9575 6.57008 45.8702 6.15074 45.696 5.86732C45.5214 5.58391 45.2655 5.39896 44.9279 5.31167C44.5899 5.21361 44.1705 5.16457 43.6695 5.16457C43.2119 5.16457 42.7706 5.21361 42.3457 5.31167C41.9208 5.39896 41.5776 5.5022 41.3161 5.62218H41.1526V3.8081C41.5449 3.6666 41.9861 3.56295 42.4764 3.49758C42.9667 3.42144 43.457 3.38318 43.9473 3.38318C44.5572 3.38318 45.1184 3.43779 45.6306 3.54661C46.1536 3.65543 46.6056 3.84637 46.9871 4.11862C47.3682 4.39087 47.6624 4.77793 47.8696 5.27898C48.0873 5.76927 48.1965 6.40665 48.1965 7.19112V9.25034C48.1965 9.47914 48.1965 9.76774 48.1965 10.1165C48.2073 10.4541 48.2236 10.7866 48.2455 11.1135C48.2671 11.4403 48.2997 11.7018 48.3436 11.8979L48.2946 12.0287C47.9239 12.1702 47.5209 12.2957 47.0852 12.4045C46.6603 12.5026 46.2242 12.5787 45.7777 12.6334C45.3309 12.688 44.906 12.7151 44.503 12.7151Z" fill="#1F074F"/>
<path d="M50.5686 10.2635H50.6993C51.0916 10.427 51.5492 10.5685 52.0721 10.6885C52.6059 10.8084 53.1396 10.8682 53.6738 10.8682C53.8587 10.8682 54.0604 10.8627 54.2785 10.8519C54.4961 10.83 54.6978 10.7921 54.8831 10.7375C55.0793 10.6829 55.2371 10.5848 55.3571 10.4433C55.4878 10.3018 55.5532 10.1109 55.5532 9.87132C55.5532 9.56638 55.4277 9.35392 55.1773 9.23394C54.9266 9.11395 54.5399 9.0107 54.017 8.92341L53.2488 8.79268C52.3771 8.64001 51.707 8.37851 51.2386 8.0082C50.7699 7.62673 50.5359 7.06589 50.5359 6.32487C50.5359 5.79113 50.6774 5.30601 50.9608 4.87033C51.255 4.43465 51.707 4.09145 52.3173 3.84072C52.9383 3.57923 53.7499 3.44849 54.7524 3.44849C55.2208 3.44849 55.6513 3.48117 56.0435 3.54655C56.4465 3.60116 56.828 3.68287 57.1875 3.79169V5.67114H57.0568C56.6426 5.50771 56.2448 5.39331 55.8637 5.32794C55.4823 5.26257 55.09 5.22988 54.687 5.22988C54.0768 5.22988 53.5972 5.30602 53.2488 5.45868C52.9108 5.60019 52.7422 5.8565 52.7422 6.22681C52.7422 6.51022 52.8674 6.71152 53.1181 6.8315C53.3796 6.95148 53.7555 7.05472 54.2458 7.14202L54.9975 7.27276C55.5094 7.3489 55.9726 7.48522 56.3867 7.68134C56.8116 7.87745 57.1493 8.14971 57.4 8.4985C57.6503 8.83612 57.7759 9.2722 57.7759 9.80594C57.7759 10.7538 57.4215 11.4674 56.7136 11.9469C56.016 12.4153 54.9593 12.6496 53.543 12.6496C53.02 12.6496 52.4971 12.6062 51.9741 12.5189C51.4511 12.4316 50.9823 12.3228 50.5686 12.192V10.2635Z" fill="#1F074F"/>
<path d="M60.045 12.5187V2.85993C60.045 2.64189 60.0394 2.36407 60.0287 2.02645C60.0175 1.67766 60.0012 1.34003 59.9796 1.01317C59.9685 0.686308 59.9358 0.424824 59.8816 0.228707L59.9306 0.0979614H62.333V4.67403L61.8428 3.92224C62.1804 3.76957 62.5455 3.64441 62.9377 3.54635C63.3407 3.43753 63.8039 3.38292 64.3269 3.38292C64.8606 3.38292 65.3565 3.45387 65.8141 3.59537C66.2825 3.72612 66.6855 3.94934 67.0235 4.26544C67.3719 4.57038 67.6445 4.97896 67.8407 5.49117C68.0368 5.99223 68.1348 6.61884 68.1348 7.37063V12.5187H65.8468V7.48503C65.8468 6.90745 65.7595 6.46099 65.5853 6.14489C65.4107 5.81803 65.1656 5.59481 64.8499 5.47482C64.5445 5.34408 64.185 5.27872 63.7712 5.27872C63.5424 5.27872 63.3025 5.30064 63.0521 5.34409C62.8122 5.38754 62.5834 5.43656 62.3657 5.49117C62.1585 5.54578 61.995 5.59481 61.8754 5.63826L62.333 4.60865V12.5187H60.045Z" fill="#1F074F"/>
<path d="M71.3822 12.5188V3.67719C71.3822 2.83812 71.5293 2.14652 71.8234 1.60162C72.1284 1.05672 72.5589 0.653726 73.1145 0.392237C73.6702 0.130748 74.3458 0 75.1411 0C75.4245 0 75.6748 0.0163374 75.8929 0.0490236C76.1217 0.0817097 76.3178 0.130746 76.4812 0.196119V1.96117H76.3178C76.187 1.90656 76.0399 1.86311 75.8765 1.83043C75.7238 1.78698 75.5277 1.76505 75.2882 1.76505C74.7106 1.76505 74.2968 1.91772 74.0461 2.22265C73.7954 2.52759 73.6702 3.02347 73.6702 3.70988V12.5188H71.3822ZM69.9603 5.4259V3.59547H75.9419V5.4259H69.9603Z" fill="#1F074F"/>
<path d="M77.6482 12.519V6.81529C77.6482 6.59725 77.643 6.31943 77.6318 5.98181C77.6211 5.63302 77.6047 5.29539 77.5828 4.96853C77.572 4.63091 77.5394 4.36383 77.4847 4.16772L77.5338 4.03698C77.8391 3.92816 78.1931 3.8301 78.5961 3.74281C79.0102 3.65551 79.4407 3.59014 79.8872 3.54669C80.3448 3.49208 80.8024 3.46497 81.26 3.46497C81.4561 3.46497 81.6686 3.47055 81.8974 3.48132C82.1262 3.49208 82.355 3.514 82.5838 3.54669V5.4098H82.4367C82.2733 5.36635 82.0883 5.33884 81.881 5.32808C81.6741 5.30616 81.4724 5.29539 81.2763 5.29539C80.9279 5.29539 80.5847 5.32251 80.2467 5.37712C79.9091 5.43173 79.6205 5.49709 79.3805 5.57322L79.7237 5.05025C79.8656 5.34443 79.9362 5.85106 79.9362 6.57015V12.519H77.6482Z" fill="#1F074F"/>
<path d="M89.1351 12.6824C88.3179 12.6824 87.5881 12.5899 86.9451 12.4045C86.3025 12.2192 85.7576 11.9414 85.3108 11.5711C84.8644 11.1896 84.5212 10.7049 84.2812 10.1165C84.0524 9.52817 83.938 8.83101 83.938 8.02462C83.938 7.06595 84.1178 6.24322 84.4773 5.55681C84.8369 4.85964 85.3435 4.3255 85.9972 3.95519C86.6621 3.57371 87.4354 3.38318 88.3179 3.38318C89.3097 3.38318 90.1157 3.59006 90.7367 4.00422C91.3577 4.40722 91.8046 4.97403 92.0768 5.70389C92.3495 6.42299 92.4639 7.2509 92.42 8.18804L92.4037 8.72737H85.4089V7.2238H90.181V7.12574C90.181 6.46126 90.0232 5.95462 89.7071 5.60583C89.4022 5.25705 88.9338 5.08286 88.3016 5.08286C87.9094 5.08286 87.5554 5.17016 87.2393 5.34435C86.9343 5.50778 86.6892 5.79119 86.5038 6.19419C86.3296 6.59718 86.2424 7.14766 86.2424 7.84483V8.18804C86.2424 8.87444 86.3731 9.41377 86.6346 9.80601C86.8961 10.1875 87.2556 10.4597 87.7132 10.6232C88.1708 10.7866 88.6994 10.8683 89.2985 10.8683C89.8327 10.8683 90.301 10.8193 90.704 10.7212C91.1074 10.6232 91.4231 10.5088 91.6519 10.378H91.8153V12.2248C91.5104 12.3555 91.1345 12.4643 90.6877 12.5516C90.252 12.6389 89.7346 12.6824 89.1351 12.6824Z" fill="#1F074F"/>
<path d="M99.5404 12.6824C98.7232 12.6824 97.9933 12.5899 97.3504 12.4045C96.7074 12.2192 96.1629 11.9414 95.7161 11.5711C95.2692 11.1896 94.926 10.7049 94.6865 10.1165C94.4577 9.52817 94.3433 8.83101 94.3433 8.02462C94.3433 7.06595 94.523 6.24322 94.8826 5.55681C95.2421 4.85964 95.7488 4.3255 96.4025 3.95519C97.067 3.57371 97.8407 3.38318 98.7232 3.38318C99.7146 3.38318 100.521 3.59006 101.142 4.00422C101.763 4.40722 102.21 4.97403 102.482 5.70389C102.754 6.42299 102.869 7.2509 102.825 8.18804L102.809 8.72737H95.8141V7.2238H100.586V7.12574C100.586 6.46126 100.428 5.95462 100.112 5.60583C99.8074 5.25705 99.3387 5.08286 98.7069 5.08286C98.3146 5.08286 97.9607 5.17016 97.6446 5.34435C97.3396 5.50778 97.0945 5.79119 96.9091 6.19419C96.7349 6.59718 96.6476 7.14766 96.6476 7.84483V8.18804C96.6476 8.87444 96.7784 9.41377 97.0399 9.80601C97.3014 10.1875 97.6609 10.4597 98.1185 10.6232C98.5761 10.7866 99.1047 10.8683 99.7038 10.8683C100.238 10.8683 100.706 10.8193 101.109 10.7212C101.512 10.6232 101.828 10.5088 102.057 10.378H102.221V12.2248C101.916 12.3555 101.54 12.4643 101.093 12.5516C100.657 12.6389 100.139 12.6824 99.5404 12.6824Z" fill="#1F074F"/>
<path d="M10.0693 0.162048C7.70199 0.162048 5.78308 2.08096 5.78308 4.44831H21.6913C24.0586 4.44831 25.9775 2.5294 25.9775 0.162048H10.0693Z" fill="#04AB61"/>
<path d="M5.78308 4.44831C5.78308 2.08096 7.70199 0.162048 10.0693 0.162048V16.0706C10.0693 18.4376 8.15043 20.3569 5.78308 20.3569V4.44831Z" fill="#04AB61"/>
<path fill-rule="evenodd" clip-rule="evenodd" d="M11.4307 5.87677V10.163H16.4304C18.7978 10.163 20.7167 8.24412 20.7167 5.87677H11.4307Z" fill="#FBB016"/>
<path d="M0 10.163C0 7.79608 1.91892 5.87677 4.28627 5.87677V21.7854C4.28627 24.1527 2.36735 26.0716 0 26.0716V10.163Z" fill="#FBB016"/>
</svg>
